
<svg xmlns="http://www.w3.org/2000/svg" version="1.1" xmlns:xlink="http://www.w3.org/1999/xlink" preserveAspectRatio="none" x="0px" y="0px" width="36px" height="36px" viewBox="0 0 36 36">
<defs>
<g id="Layer0_0_FILL">
<path fill="#FFFFFF" stroke="none" d="
M 33 18
Q 33 11.8 28.6 7.4 24.2 3 18 3 11.8 3 7.4 7.4 3 11.8 3 18 3 24.25 7.4 28.6 11.8 33 18 33 24.2 33 28.6 28.6 33 24.2 33 18
M 26.5 9.55
Q 30 13.05 30 18 30 23 26.5 26.5 22.95 30 18 30 13 30 9.5 26.5 6 23 6 18 6 13.05 9.5 9.55 13 6 18 6 22.95 6 26.5 9.55 Z"/>
</g>

<g id="Layer0_1_FILL">
<path fill="#FFFFFF" stroke="none" d="
M 18.35 28.95
Q 19.35 28.9 20.05 28.25 20.7 27.6 20.75 26.6 20.7 25.6 20 24.95 19.35 24.35 18.35 24.3 17.35 24.35 16.65 25 15.95 25.65 15.95 26.65 15.95 27.65 16.65 28.25 17.35 28.9 18.35 28.95
M 20.15 10.75
L 16.55 10.75 16.55 22.1 20.15 22.1 20.15 10.75 Z"/>
</g>
</defs>

<g transform="matrix( 1, 0, 0, 1, 0,0) ">
<use xlink:href="#Layer0_0_FILL"/>
</g>

<g transform="matrix( 1, 0, 0, 1, -0.35,-1.85) ">
<use xlink:href="#Layer0_1_FILL"/>
</g>
</svg>
