
<svg xmlns="http://www.w3.org/2000/svg" version="1.1" xmlns:xlink="http://www.w3.org/1999/xlink" preserveAspectRatio="none" x="0px" y="0px" width="64px" height="64px" viewBox="0 0 64 64">
<defs>
<g id="iconDoor_1_Layer1_0_FILL">
<path fill="#FFFFFF" fill-opacity="0" stroke="none" d="
M -64 -64
L -64 64 64 64 64 -64 -64 -64 Z"/>
</g>

<g id="Door_1_Layer2_0_FILL">
<path fill="#546E7A" stroke="none" d="
M -51.9 43.3
L -42.85 43.3 -44.05 25.15 -53.15 25.15 -51.9 43.3
M -57 -31.3
L -47.95 -31.3 -49.15 -49.45 -58.25 -49.45 -57 -31.3 Z"/>
</g>

<g id="Door_1_Layer1_0_FILL">
<path fill="#9EADB4" stroke="none" d="
M -59.2 49.85
L -50.1 49.85 -57.8 -62.85 58.1 -62.85 50.4 49.85 59.45 49.85 67.8 -71.9 -67.5 -71.9 -59.2 49.85 Z"/>
</g>

<g id="Door_1_Layer0_0_FILL">
<path fill="#D7942B" stroke="none" d="
M 9.8 -31.9
L -50.95 -57.15 -44.55 49.85 9.8 79.05 9.8 -31.9
M 2.9 12.05
Q 3.8 13.6 3.9 15.8 3.95 18 3.15 19.6 2.3 21.15 1.1 21.15 -0.15 21.15 -1.05 19.6 -1.95 18 -2 15.8 -2.1 13.6 -1.3 12.05 -0.5 10.45 0.75 10.45 1.95 10.45 2.9 12.05 Z"/>
</g>
</defs>

<g transform="matrix( 0.5, 0, 0, 0.5, 32,32) ">
<g transform="matrix( 1, 0, 0, 1, 0,0) ">
<use xlink:href="#iconDoor_1_Layer1_0_FILL"/>
</g>

<g transform="matrix( 0.8399810791015625, 0, 0, 0.8399810791015625, -0.1,-3) ">
<g transform="matrix( 1, 0, 0, 1, 0,0) ">
<use xlink:href="#Door_1_Layer2_0_FILL"/>
</g>

<g transform="matrix( 1, 0, 0, 1, 0,0) ">
<use xlink:href="#Door_1_Layer1_0_FILL"/>
</g>

<g transform="matrix( 1, 0, 0, 1, 0,0) ">
<use xlink:href="#Door_1_Layer0_0_FILL"/>
</g>
</g>
</g>
</svg>
