<svg width="64" height="64" xmlns="http://www.w3.org/2000/svg">
 <!-- Created with Method Draw - http://github.com/duopixel/Method-Draw/ -->

 <g>
  <title>background</title>
  <rect x="-1" y="-1" width="66" height="66" id="canvas_background" fill="none"/>
  <g id="canvasGrid" display="none">
   <rect id="svg_2" width="100%" height="100%" x="0" y="0" stroke-width="0" fill="url(#gridpattern)"/>
  </g>
 </g>
 <g>
  <title>Layer 1</title>
  <path fill="#000000" stroke="#000" stroke-width="1.5" d="m14.75403,46.246349c-0.011561,-11.424754 -0.023115,-22.849511 -0.034676,-34.274264c10.436786,0.13131 20.917835,-0.31107 31.319281,0.337185c5.072213,1.480686 4.341236,10.698134 4.258866,17.582853c-0.222503,5.191923 2.963528,15.48429 -5.311697,17.031322c-4.125642,0.000183 -4.141878,1.449514 -3.720769,4.071267c0.488691,3.927719 -0.930022,12.726304 -7.707483,7.149437l-18.803524,-11.897799l0.000002,-0.000002l0,0.000001zm31.941597,-3.73475c0.01677,-10.269392 -0.123119,-19.030661 -0.815526,-25.796723c-6.152007,-2.301463 -14.465077,-1.181439 -21.425728,-1.216413c-2.736216,1.094535 6.490754,4.72892 8.447706,6.139124c7.429296,3.032158 9.645877,8.54643 8.362976,14.778374c0,2.424199 0,4.848404 0,7.272602c1.370029,-0.001363 4.20441,-0.559644 5.430574,-1.176971l-0.000002,0.000006l0,0.000001z" id="svg_1"/>
 </g>
</svg>