<svg width="64" height="64" xmlns="http://www.w3.org/2000/svg">
 <!-- Created with Method Draw - http://github.com/duopixel/Method-Draw/ -->

 <g>
  <title>background</title>
  <rect x="-1" y="-1" width="66" height="66" id="canvas_background" fill="none"/>
  <g id="canvasGrid" display="none">
   <rect id="svg_2" width="100%" height="100%" x="0" y="0" stroke-width="0" fill="url(#gridpattern)"/>
  </g>
 </g>
 <g>
  <title>Layer 1</title>
  <path fill="#000000" stroke="#ff0000" stroke-width="1.5" d="m44.712871,8.417436c-3.704631,3.079476 -8.825124,3.109368 -12.557894,0.091811c-3.590116,2.90327 -8.465934,2.986378 -12.12964,0.249217l-6.587837,7.275867c4.052443,4.556637 4.028889,11.877633 -0.06925,16.40303c-0.543898,1.545059 -0.828958,1.470554 -0.888294,3.026491c-0.139545,3.74605 0.677639,7.240636 3.237319,9.872574c2.286548,2.351057 5.389489,3.348189 8.370109,2.992413c4.977268,0.284006 7.363407,2.66469 8.364641,4.088595c1.351978,-1.521431 3.454427,-3.967303 9.844399,-4.272209c3.814544,-0.608062 5.193037,-1.590385 6.983286,-3.406525c2.409625,-2.477607 3.252185,-5.614995 3.181172,-9.100936c-0.029489,-1.447192 -0.189839,-1.95033 -0.981585,-3.798143c-4.117145,-4.546379 -4.12014,-11.914853 -0.010929,-16.46673l-6.755496,-6.955456l-0.000001,0.000001z" id="svg_1"/>
 </g>
</svg>