
<svg xmlns="http://www.w3.org/2000/svg" version="1.1" xmlns:xlink="http://www.w3.org/1999/xlink" preserveAspectRatio="none" x="0px" y="0px" width="64px" height="64px" viewBox="0 0 64 64">
<defs>
<g id="iconDoor_0_Layer1_0_FILL">
<path fill="#FFFFFF" fill-opacity="0" stroke="none" d="
M -64 -64
L -64 64 64 64 64 -64 -64 -64 Z"/>
</g>

<g id="Door_0_Layer2_0_FILL">
<path fill="#546E7A" stroke="none" d="
M -51.9 43.3
L -42.85 43.3 -44.05 25.15 -53.15 25.15 -51.9 43.3
M -57 -31.3
L -47.95 -31.3 -49.15 -49.45 -58.25 -49.45 -57 -31.3 Z"/>
</g>

<g id="Door_0_Layer1_0_FILL">
<path fill="#9EADB4" stroke="none" d="
M -59.2 49.85
L -50.1 49.85 -57.8 -62.85 58.1 -62.85 50.4 49.85 59.45 49.85 67.8 -71.9 -67.5 -71.9 -59.2 49.85 Z"/>
</g>

<g id="Door_0_Layer0_0_FILL">
<path fill="#E5A543" stroke="none" d="
M 44.85 49.85
L 51.25 -57.15 -50.95 -57.15 -44.55 49.85 44.85 49.85
M 38.3 -9.45
Q 39.85 -7.9 39.85 -5.7 39.85 -3.5 38.3 -1.9 36.7 -0.35 34.5 -0.35 32.3 -0.35 30.75 -1.9 29.15 -3.5 29.15 -5.7 29.15 -7.9 30.75 -9.45 32.3 -11.05 34.5 -11.05 36.7 -11.05 38.3 -9.45 Z"/>
</g>
</defs>

<g transform="matrix( 0.5, 0, 0, 0.5, 32,32) ">
<g transform="matrix( 1, 0, 0, 1, 0,0) ">
<use xlink:href="#iconDoor_0_Layer1_0_FILL"/>
</g>

<g transform="matrix( 0.8399810791015625, 0, 0, 0.8399810791015625, -0.1,-3) ">
<g transform="matrix( 1, 0, 0, 1, 0,0) ">
<use xlink:href="#Door_0_Layer2_0_FILL"/>
</g>

<g transform="matrix( 1, 0, 0, 1, 0,0) ">
<use xlink:href="#Door_0_Layer1_0_FILL"/>
</g>

<g transform="matrix( 1, 0, 0, 1, 0,0) ">
<use xlink:href="#Door_0_Layer0_0_FILL"/>
</g>
</g>
</g>
</svg>
