<svg width="64" height="64" xmlns="http://www.w3.org/2000/svg">
 <!-- Created with Method Draw - http://github.com/duopixel/Method-Draw/ -->

 <g>
  <title>background</title>
  <rect x="-1" y="-1" width="66" height="66" id="canvas_background" fill="none"/>
  <g id="canvasGrid" display="none">
   <rect id="svg_2" width="100%" height="100%" x="0" y="0" stroke-width="0" fill="url(#gridpattern)"/>
  </g>
 </g>
 <g>
  <title>Layer 1</title>
  <path fill="#fff" stroke-width="1.5" d="m32.117121,8.129111c-13.531585,0 -24.50001,10.74518 -24.50001,24.000001c0,13.254824 10.968426,24.000001 24.50001,24.000001c13.530959,0 24.49999,-10.745178 24.49999,-24.000001c0,-13.254822 -10.969031,-24.000001 -24.49999,-24.000001zm0,45.123813c-2.611426,0 -4.730246,-2.074974 -4.730246,-4.633688s2.116913,-4.633781 4.730246,-4.633781c2.612666,0 4.729577,2.073776 4.729577,4.633781s-2.116911,4.633688 -4.729577,4.633688zm0,-12.723183l-13.246703,-10.83593l5.847839,0l0,-14.495729l14.799035,0l0,14.495729l5.84585,0l-13.246024,10.83593l0.000002,0l0.000001,0z" id="svg_1" stroke="#000"/>
 </g>
</svg>