
<svg xmlns="http://www.w3.org/2000/svg" version="1.1" xmlns:xlink="http://www.w3.org/1999/xlink" preserveAspectRatio="none" x="0px" y="0px" width="64px" height="64px" viewBox="0 0 64 64">
<defs>
<g id="iconFinish_0_Layer6_0_FILL">
<path fill="#FFFFFF" fill-opacity="0" stroke="none" d="
M -64 -64
L -64 64 64 64 64 -64 -64 -64 Z"/>
</g>

<g id="iconFinish_0_Layer5_0_FILL">
<path fill="#6BB7BC" stroke="none" d="
M -40.7 55.8
Q -40.7 55.95 -40.65 56.05 -40.35 58.9 -35.2 61.1 -29.85 63.35 -22.35 63.35 -14.95 63.35 -9.75 61.1 -4.7 58.9 -4.75 55.95
L -5.1 47
Q -5.1 49.5 -8.4 51.4 -9.15 51.85 -10.15 52.3 -15.35 54.5 -22.75 54.5 -30.25 54.5 -35.6 52.3 -36.55 51.85 -37.4 51.4 -40.9 49.5 -41.05 47
L -40.7 55.8 Z"/>

<path fill="#91D6DB" stroke="none" d="
M -5.1 47
L -5.1 46.85
Q -5.35 43.9 -10.6 41.7 -10.75 41.6 -10.8 41.6 -12 41.1 -13.3 40.85 -17.75 39.6 -23.4 39.6 -29.3 39.6 -33.7 40.9 -34.8 41.2 -35.8 41.6 -35.9 41.6 -36.05 41.7 -41.2 43.9 -41.05 46.95
L -41.05 47
Q -40.9 49.5 -37.4 51.4 -36.55 51.85 -35.6 52.3 -30.25 54.5 -22.75 54.5 -15.35 54.5 -10.15 52.3 -9.15 51.85 -8.4 51.4 -5.1 49.5 -5.1 47 Z"/>
</g>

<g id="iconFinish_0_Layer4_0_FILL">
<path fill="#6BB7BC" stroke="none" d="
M -33.2 36
L -33.2 35.9 -35.7 44.5
Q -35.8 44.6 -35.9 44.85 -35.9 45.05 -35.9 45.3 -35.8 47.45 -32 49.1 -28.3 50.65 -23.05 50.65 -17.75 50.65 -14.1 49.1 -10.45 47.45 -10.55 45.3 -10.55 45 -10.65 44.7
L -14.15 35.8
Q -14.15 35.9 -14.15 36 -14.1 37.6 -16.85 38.8 -19.6 40 -23.55 40 -27.45 40 -30.3 38.8 -33.15 37.6 -33.2 36 Z"/>

<path fill="#91D6DB" stroke="none" d="
M -30.55 33.2
Q -32.95 34.25 -33.2 35.65
L -33.15 35.85 -33.2 35.9 -33.2 36
Q -33.15 37.6 -30.3 38.8 -27.45 40 -23.55 40 -19.6 40 -16.85 38.8 -14.1 37.6 -14.15 36 -14.15 35.9 -14.15 35.8
L -14.25 35.6 -14.3 35.55 -14.3 35.45
Q -14.8 34.15 -17.1 33.2 -19.95 32.1 -23.9 32.1 -27.8 32.1 -30.55 33.2 Z"/>
</g>

<g id="iconFinish_0_Layer3_0_FILL">
<path fill="#6DBB08" stroke="none" d="
M 45.05 -29.05
L 61.9 -56.4 3.15 -58.45 4.75 -5.45 60.25 0.2 45.05 -29.05 Z"/>
</g>

<g id="iconFinish_0_Layer2_0_FILL">
<path fill="#5C9C07" stroke="none" d="
M 31.35 -48.7
L 3.15 -58.45 4.75 -5.45 31.3 4.55 31.35 -48.7 Z"/>
</g>

<g id="iconFinish_0_Layer1_0_FILL">
<path fill="#76CB07" stroke="none" d="
M -18.95 -50.55
L -17.05 -0.1 31.3 4.55 31.35 -48.7 -18.95 -50.55 Z"/>

<path fill="#68B109" stroke="none" d="
M -18.95 -50.55
L -25.35 -50.85 -22.4 -0.65 -17.05 -0.1 -18.95 -50.55 Z"/>
</g>

<g id="iconFinish_0_Layer0_0_FILL">
<path fill="#9EADB4" stroke="none" d="
M -30.25 -56.65
Q -31.25 -55.65 -31.2 -54.2
L -27.35 34.8
Q -27.3 36.25 -26 36.8 -24.8 37.3 -23.4 37.2 -22 37.1 -21.1 36.7 -20.3 36.25 -20.35 34.8
L -24.2 -54.2
Q -24.25 -55.65 -25.3 -56.65 -26.4 -57.7 -27.85 -57.7 -29.3 -57.7 -30.25 -56.65 Z"/>
</g>
</defs>

<g transform="matrix( 0.5, 0, 0, 0.5, 32,32) ">
<g transform="matrix( 1, 0, 0, 1, 0,0) ">
<use xlink:href="#iconFinish_0_Layer6_0_FILL"/>
</g>

<g transform="matrix( 1, 0, 0, 1, 0,0) ">
<use xlink:href="#iconFinish_0_Layer5_0_FILL"/>
</g>

<g transform="matrix( 1, 0, 0, 1, 0,0) ">
<use xlink:href="#iconFinish_0_Layer4_0_FILL"/>
</g>

<g transform="matrix( 1, 0, 0, 1, 0,0) ">
<use xlink:href="#iconFinish_0_Layer3_0_FILL"/>
</g>

<g transform="matrix( 1, 0, 0, 1, 0,0) ">
<use xlink:href="#iconFinish_0_Layer2_0_FILL"/>
</g>

<g transform="matrix( 1, 0, 0, 1, 0,0) ">
<use xlink:href="#iconFinish_0_Layer1_0_FILL"/>
</g>

<g transform="matrix( 1, 0, 0, 1, 0,0) ">
<use xlink:href="#iconFinish_0_Layer0_0_FILL"/>
</g>
</g>
</svg>
