<?xml version="1.0" encoding="utf-8"?>
<!-- Generator: Adobe Illustrator 15.1.0, SVG Export Plug-In  -->
<!DOCTYPE svg PUBLIC "-//W3C//DTD SVG 1.1//EN" "http://www.w3.org/Graphics/SVG/1.1/DTD/svg11.dtd" [
	<!ENTITY ns_flows "http://ns.adobe.com/Flows/1.0/">
]>
<svg version="1.1"
	 xmlns="http://www.w3.org/2000/svg" xmlns:xlink="http://www.w3.org/1999/xlink" xmlns:a="http://ns.adobe.com/AdobeSVGViewerExtensions/3.0/"
	 x="0px" y="0px" width="18px" height="18px" viewBox="-1.73 -0.066 18 18"
	 overflow="visible" enable-background="new -1.73 -0.066 18 18" xml:space="preserve">
<defs>
</defs>
<path fill="#FFFFFF" d="M7.903,2.729C7.697,2.321,7.856,0.566,7.806,0C5.77,0.949,3.665,2.829,1.66,3.901
	C3.442,5.11,5.882,7.029,7.806,8.096c0-0.649,0-2.177,0-2.828c4.898-0.297,6.354,7.303,2.342,9.268
	c-3.364,1.649-7.453-0.493-7.512-4.195c-0.879,0-1.757,0-2.634,0c-0.044,2.067,0.88,3.705,2.049,4.978
	c1.091,1.188,2.729,2.29,4.391,2.536c4.499,0.665,8.366-2.924,8.78-6.635c0.25-2.248-0.521-4.474-1.269-5.269
	C12.513,4.301,10.884,2.84,7.903,2.729z"/>
</svg>
