<?xml version="1.0" encoding="utf-8"?>
<!-- Generator: Adobe Illustrator 15.1.0, SVG Export Plug-In  -->
<!DOCTYPE svg PUBLIC "-//W3C//DTD SVG 1.1//EN" "http://www.w3.org/Graphics/SVG/1.1/DTD/svg11.dtd" [
	<!ENTITY ns_flows "http://ns.adobe.com/Flows/1.0/">
]>
<svg version="1.1"
	 xmlns="http://www.w3.org/2000/svg" xmlns:xlink="http://www.w3.org/1999/xlink" xmlns:a="http://ns.adobe.com/AdobeSVGViewerExtensions/3.0/"
	 x="0px" y="0px" width="18px" height="18px" viewBox="-1.853 -0.023 18 18"
	 style="overflow:visible;enable-background:new -1.853 -0.023 18 18;" xml:space="preserve">
<defs>
</defs>
<path style="fill:#FFFFFF;" d="M13.747,16.078c-0.315-0.091-0.316-0.261-0.313-0.51c0.014-1.081-0.208-2.113-0.673-3.09
	c-0.678-1.426-1.797-2.418-3.141-3.189c-0.143-0.081-0.362-0.136-0.372-0.31c-0.01-0.19,0.222-0.225,0.361-0.308
	c1.045-0.624,1.997-1.356,2.684-2.38c0.797-1.188,1.152-2.51,1.144-3.938c-0.001-0.158-0.091-0.348,0.182-0.44
	c0.534-0.182,0.768-0.618,0.671-1.15c-0.085-0.474-0.467-0.749-1.026-0.751c-2.026-0.006-4.116-0.002-6.116-0.002
	c0-0.003,0-0.006,0-0.009c-1,0-2.638-0.004-3.975,0.001C2.367,0.006,1.581-0.001,0.777,0.04C0.347,0.062,0.08,0.381,0.016,0.793
	c-0.073,0.481,0.108,0.932,0.523,1.063c0.342,0.108,0.334,0.309,0.338,0.577c0.031,2.003,0.707,3.729,2.224,5.082
	c0.515,0.459,1.062,0.867,1.683,1.18c0.444,0.224,0.428,0.315-0.014,0.569C4.635,9.343,4.498,9.417,4.366,9.499
	c-1.039,0.645-1.945,1.424-2.562,2.502c-0.64,1.12-0.945,2.325-0.919,3.611c0.005,0.231-0.02,0.374-0.292,0.445
	c-0.344,0.09-0.51,0.387-0.568,0.726c-0.119,0.691,0.313,1.153,1.094,1.155c3.52,0.007,7.04,0.009,10.559,0.009
	c0.61,0,1.221,0.004,1.829-0.038c0.448-0.031,0.728-0.348,0.786-0.783C14.355,16.646,14.162,16.198,13.747,16.078z M12.195,15.972
	c-3.364-0.009-6.728-0.013-10.091,0c-0.429,0.002-0.339-0.278-0.332-0.493c0.068-2.028,0.864-3.688,2.532-4.886
	c0.378-0.271,0.796-0.488,1.183-0.75C6.246,9.33,6.27,8.719,5.554,8.15C5.005,7.715,4.341,7.451,3.816,6.979
	C2.444,5.746,1.759,4.213,1.76,2.366c0-0.304,0.078-0.393,0.383-0.39C3.818,1.99,5.147,1.983,7.147,1.983c0-0.003,0-0.005,0-0.008
	c1,0,3.346,0.008,5.008-0.006c0.291-0.003,0.399,0.085,0.395,0.371c-0.037,2.277-0.969,4.047-2.924,5.25
	c-0.275,0.17-0.562,0.318-0.829,0.5C8.03,8.612,8.033,9.322,8.796,9.844c0.48,0.328,1.002,0.59,1.464,0.952
	c1.579,1.238,2.267,2.88,2.275,4.85C12.536,15.896,12.448,15.973,12.195,15.972z"/>
<path style="fill:#FFFFFF;" d="M8.694,12.491c-0.068-0.074-0.167-0.122-0.257-0.175c-0.361-0.213-0.542-0.546-0.635-0.938
	c-0.167-0.711-0.198-1.435-0.211-2.162c-0.013-0.67,0.271-1.17,0.788-1.564C8.696,7.409,9.01,7.163,9.352,6.897
	C8.865,6.577,8.433,6.246,8.055,5.86C7.524,5.318,6.936,5.227,6.242,5.482C5.514,5.751,4.777,6.015,3.966,5.817
	c0.025,0.206,0.15,0.307,0.262,0.41C4.77,6.732,5.355,7.186,5.953,7.621c0.534,0.389,0.809,0.894,0.77,1.565
	C6.69,9.73,6.694,10.277,6.658,10.821c-0.026,0.389-0.122,0.768-0.28,1.127c-0.118,0.269-0.982,0.747-1.731,1.017
	c-0.546,0.197-1.981,1.306-2.189,1.996c-0.077,0.256-0.031,0.395,0.304,0.386c0.948-0.024,1.896-0.009,2.845-0.01
	c1.987-0.001,3.975-0.005,5.963,0.002c0.249,0.001,0.332-0.052,0.308-0.323c-0.075-0.863-0.396-1.31-1.238-1.531
	C9.912,13.294,9.222,13.062,8.694,12.491z"/>
</svg>
