<?xml version="1.0" encoding="utf-8"?>
<!-- Generator: Adobe Illustrator 15.1.0, SVG Export Plug-In  -->
<!DOCTYPE svg PUBLIC "-//W3C//DTD SVG 1.1//EN" "http://www.w3.org/Graphics/SVG/1.1/DTD/svg11.dtd" [
	<!ENTITY ns_flows "http://ns.adobe.com/Flows/1.0/">
]>
<svg version="1.1"
	 xmlns="http://www.w3.org/2000/svg" xmlns:xlink="http://www.w3.org/1999/xlink" xmlns:a="http://ns.adobe.com/AdobeSVGViewerExtensions/3.0/"
	 x="0px" y="0px" width="18px" height="18px" viewBox="-0.09 -0.09 18 18"
	 style="overflow:visible;enable-background:new -0.09 -0.09 18 18;" xml:space="preserve">
<defs>
</defs>
<path style="fill:#7A7A7A;" d="M14.393,8.914c0-0.377-0.302-0.683-0.674-0.683H9.594V4.113l0,0c0-0.379-0.307-0.686-0.686-0.686
	S8.223,3.734,8.223,4.113v4.799c0,0.378,0.307,0.686,0.686,0.686h4.811C14.091,9.598,14.393,9.292,14.393,8.914 M16.451,8.91
	c0,4.165-3.376,7.542-7.541,7.542S1.37,13.075,1.37,8.91S4.746,1.368,8.91,1.368S16.451,4.745,16.451,8.91 M17.82,8.91
	C17.82,3.989,13.831,0,8.91,0S0,3.989,0,8.91s3.989,8.91,8.91,8.91S17.82,13.831,17.82,8.91"/>
</svg>
