<?xml version="1.0" encoding="utf-8"?>
<!-- Generator: Adobe Illustrator 15.1.0, SVG Export Plug-In  -->
<!DOCTYPE svg PUBLIC "-//W3C//DTD SVG 1.1//EN" "http://www.w3.org/Graphics/SVG/1.1/DTD/svg11.dtd" [
	<!ENTITY ns_flows "http://ns.adobe.com/Flows/1.0/">
]>
<svg version="1.1"
	 xmlns="http://www.w3.org/2000/svg" xmlns:xlink="http://www.w3.org/1999/xlink" xmlns:a="http://ns.adobe.com/AdobeSVGViewerExtensions/3.0/"
	 x="0px" y="0px" width="18px" height="18px" viewBox="-0.361 -2.809 18 18"
	 overflow="visible" enable-background="new -0.361 -2.809 18 18" xml:space="preserve">
<defs>
</defs>
<g>
	<g>
		<path fill="#7A7A7A" d="M5.887,9.915c0.44-1.858,1.678-3.677,2.755-5.221C8.905,4.316,9.23,3.976,9.546,3.643
			c1.012-1.07-2.534,0.397-2.727-0.048C7.39,4.914,6.587,6.382,6.232,7.653c-0.888,3.178,1.67,5.217,4.725,4.788
			c3.407-0.478,4.841-3.183,6.418-5.855c1.562-2.647-4.325-2.425-5.486-0.457c-0.604,1.024-1.08,2.122-1.899,2.998
			c1.544,0.252,2.179-0.081,1.905-0.998c0.03-0.348,0.09-0.689,0.18-1.026c0.189-0.859,0.53-1.685,0.743-2.539
			c0.61-2.456-1.145-4.874-3.745-4.531C4.489,0.637,1.036,6.284,0.044,10.466C-0.569,13.054,5.334,12.247,5.887,9.915L5.887,9.915z"
			/>
	</g>
</g>
</svg>
