<?xml version="1.0" encoding="iso-8859-1"?>
<!-- Generator: Adobe Illustrator 19.0.0, SVG Export Plug-In . SVG Version: 6.00 Build 0)  -->
<svg version="1.1" id="Layer_1" xmlns="http://www.w3.org/2000/svg" xmlns:xlink="http://www.w3.org/1999/xlink" x="0px" y="0px"
	 viewBox="0 0 512 512" style="enable-background:new 0 0 512 512;" xml:space="preserve">
<g>
	<g>
		<g>
			<path d="M335.781,150.635c-3.438-1.875-7.625-1.75-10.885,0.396l-90.229,58V160c0-5.896-4.771-10.667-10.667-10.667h-42.667
				c-5.896,0-10.667,4.771-10.667,10.667v192c0,5.896,4.771,10.667,10.667,10.667H224c5.896,0,10.667-4.771,10.667-10.667v-49.031
				l90.229,58c1.75,1.135,3.76,1.698,5.771,1.698c1.76,0,3.51-0.438,5.115-1.302c3.417-1.875,5.552-5.458,5.552-9.365V160
				C341.333,156.094,339.198,152.51,335.781,150.635z M320,332.458l-90.229-58c-3.292-2.135-7.448-2.26-10.885-0.396
				c-3.417,1.875-5.552,5.458-5.552,9.365v57.906H192V170.667h21.333v57.906c0,3.906,2.135,7.49,5.552,9.365
				c3.438,1.833,7.594,1.698,10.885-0.396l90.229-58V332.458z"/>
			<path d="M256,0C114.844,0,0,114.844,0,256s114.844,256,256,256s256-114.844,256-256S397.156,0,256,0z M256,490.667
				C126.604,490.667,21.333,385.396,21.333,256S126.604,21.333,256,21.333S490.667,126.604,490.667,256S385.396,490.667,256,490.667
				z"/>
		</g>
	</g>
</g>
<g>
</g>
<g>
</g>
<g>
</g>
<g>
</g>
<g>
</g>
<g>
</g>
<g>
</g>
<g>
</g>
<g>
</g>
<g>
</g>
<g>
</g>
<g>
</g>
<g>
</g>
<g>
</g>
<g>
</g>
</svg>
