<svg xmlns="http://www.w3.org/2000/svg" width="50" height="50" viewBox="0 0 50 50"><defs><style>.cls-1{fill:#fff;}</style></defs><title>mTalent_play_activity</title><g id="Warstwa_2" data-name="Warstwa 2"><path d="M18,19.61a5.5,5.5,0,0,0,0,11h1.52l5,5.46V14.15l-5,5.46Z"/><path d="M32.5,25.11a7.51,7.51,0,0,0-4.29-6.77l-.27,1a6.49,6.49,0,0,1,.38,11.37l.3,1A7.52,7.52,0,0,0,32.5,25.11Z"/><path d="M29.54,13.48l-.27,1a11.49,11.49,0,0,1,.51,21.12l.29,1a12.48,12.48,0,0,0-.53-23Z"/><rect class="cls-1" x="17" y="217" width="16" height="16"/><rect class="cls-1" x="17" y="167" width="6" height="16"/><rect class="cls-1" x="27" y="167" width="6" height="16"/><path d="M25,78.32a4,4,0,0,0,4-4v-8a4,4,0,0,0-8,0v8A4,4,0,0,0,25,78.32Zm7-4a6.88,6.88,0,0,1-7,6.76,6.88,6.88,0,0,1-7-6.76H15.72a9.26,9.26,0,0,0,8,8.91V87.6h2.66V83.25a9.24,9.24,0,0,0,8-8.91Z"/><path d="M18,114.85v20.3L34,125Z"/></g></svg>