<?xml version="1.0" encoding="utf-8"?>
<!-- Generator: Adobe Illustrator 15.1.0, SVG Export Plug-In  -->
<!DOCTYPE svg PUBLIC "-//W3C//DTD SVG 1.1//EN" "http://www.w3.org/Graphics/SVG/1.1/DTD/svg11.dtd" [
	<!ENTITY ns_flows "http://ns.adobe.com/Flows/1.0/">
]>
<svg version="1.1"
	 xmlns="http://www.w3.org/2000/svg" xmlns:xlink="http://www.w3.org/1999/xlink" xmlns:a="http://ns.adobe.com/AdobeSVGViewerExtensions/3.0/"
	 x="0px" y="0px" width="20px" height="20px" viewBox="-1.191 -3.005 20 20"
	 overflow="visible" enable-background="new -1.191 -3.005 20 20" xml:space="preserve">
<defs>
</defs>
<path d="M7.881,0.004c-0.162-0.005-0.354,0.028-0.59,0.124L2.933,4.34H0.922C0.413,4.34,0,4.593,0,4.908V9.35
	c0,0.312,0.413,0.567,0.922,0.567h2.011l4.358,4.213c0.236,0.096,0.428,0.129,0.59,0.124c0.314,0.027,0.607-0.087,0.834-0.627
	v-0.083V0.713V0.63C8.489,0.09,8.196-0.024,7.881,0.004z"/>
<path d="M10.313,10.482c-0.183,0-0.461-0.061-0.497-0.12c-0.008-0.015-0.014-0.032,0-0.059c1.839-2.106,1.843-4.162,0.014-6.285
	L9.814,4.001L9.797,3.986c-0.02-0.019-0.035-0.051-0.019-0.091c0.027-0.062,0.286-0.125,0.444-0.125
	c0.137,0,0.404,0.046,0.665,0.354c1.626,1.96,1.625,3.891-0.003,6.072C10.762,10.378,10.546,10.482,10.313,10.482z"/>
</svg>
