<?xml version="1.0" encoding="utf-8"?>
<!-- Generator: Adobe Illustrator 15.1.0, SVG Export Plug-In  -->
<!DOCTYPE svg PUBLIC "-//W3C//DTD SVG 1.1//EN" "http://www.w3.org/Graphics/SVG/1.1/DTD/svg11.dtd" [
	<!ENTITY ns_flows "http://ns.adobe.com/Flows/1.0/">
]>
<svg version="1.1"
	 xmlns="http://www.w3.org/2000/svg" xmlns:xlink="http://www.w3.org/1999/xlink" xmlns:a="http://ns.adobe.com/AdobeSVGViewerExtensions/3.0/"
	 x="0px" y="0px" width="20px" height="20px" viewBox="-1.191 -1.833 20 20"
	 overflow="visible" enable-background="new -1.191 -1.833 20 20" xml:space="preserve">
<defs>
</defs>
<path d="M7.881,1.175C7.719,1.17,7.528,1.204,7.291,1.299L2.933,5.511H0.922C0.413,5.511,0,5.764,0,6.08v4.441
	c0,0.312,0.413,0.567,0.922,0.567h2.011l4.358,4.213c0.237,0.096,0.428,0.129,0.59,0.124c0.314,0.027,0.607-0.087,0.834-0.627
	v-0.083V1.885V1.802C8.488,1.262,8.196,1.147,7.881,1.175z"/>
<path d="M14.171,16.333c-0.217,0-0.363-0.063-0.429-0.109c3.856-5.277,3.845-10.671-0.032-16.032l-0.017-0.022l-0.019-0.021
	c-0.027-0.03-0.033-0.048-0.033-0.048C13.654,0.091,13.764,0,13.983,0c0.183,0,0.661,0.075,1.152,0.765
	c3.316,4.77,3.312,9.673-0.017,14.988C14.82,16.278,14.357,16.333,14.171,16.333L14.171,16.333z"/>
<path d="M11.512,13.202c-0.249,0-0.428-0.088-0.477-0.175c-0.011-0.021-0.02-0.047,0-0.086c2.509-3.078,2.515-6.081,0.018-9.184
	l-0.02-0.025L11.01,3.709c-0.027-0.027-0.048-0.075-0.025-0.133c0.038-0.091,0.188-0.183,0.405-0.183
	c0.186,0,0.551,0.067,0.907,0.517c2.218,2.864,2.217,5.685-0.005,8.873C12.125,13.049,11.831,13.202,11.512,13.202z"/>
</svg>
