<?xml version="1.0" encoding="utf-8"?>
<!-- Generator: Adobe Illustrator 15.1.0, SVG Export Plug-In  -->
<!DOCTYPE svg PUBLIC "-//W3C//DTD SVG 1.1//EN" "http://www.w3.org/Graphics/SVG/1.1/DTD/svg11.dtd" [
	<!ENTITY ns_flows "http://ns.adobe.com/Flows/1.0/">
]>
<svg version="1.1"
	 xmlns="http://www.w3.org/2000/svg" xmlns:xlink="http://www.w3.org/1999/xlink" xmlns:a="http://ns.adobe.com/AdobeSVGViewerExtensions/3.0/"
	 x="0px" y="0px" width="20px" height="20px" viewBox="-1.191 -1.833 20 20"
	 overflow="visible" enable-background="new -1.191 -1.833 20 20" xml:space="preserve">
<defs>
</defs>
<path d="M7.881,1.175C7.719,1.17,7.528,1.204,7.292,1.299L2.933,5.511H0.922C0.413,5.511,0,5.764,0,6.08v4.441
	c0,0.312,0.413,0.567,0.922,0.567h2.011l4.358,4.213c0.236,0.096,0.428,0.129,0.59,0.124c0.314,0.027,0.607-0.087,0.834-0.627
	v-0.083V1.885V1.802C8.489,1.262,8.196,1.147,7.881,1.175z"/>
<path d="M14.171,16.333c-0.218,0-0.363-0.063-0.429-0.109c3.855-5.277,3.845-10.671-0.032-16.032l-0.017-0.022l-0.02-0.021
	c-0.027-0.03-0.033-0.048-0.033-0.048C13.654,0.091,13.764,0,13.983,0c0.183,0,0.661,0.075,1.152,0.765
	c3.316,4.77,3.312,9.673-0.017,14.988C14.821,16.278,14.357,16.333,14.171,16.333L14.171,16.333z"/>
<path d="M12.387,14.263c-0.249,0-0.428-0.107-0.477-0.213c-0.012-0.026-0.02-0.058,0-0.104c2.508-3.744,2.514-7.397,0.018-11.171
	l-0.021-0.031l-0.022-0.027c-0.027-0.033-0.049-0.091-0.025-0.162c0.037-0.111,0.188-0.222,0.405-0.222
	c0.187,0,0.551,0.082,0.907,0.629c2.218,3.484,2.217,6.916-0.005,10.794C13,14.077,12.706,14.263,12.387,14.263z"/>
<path d="M10.313,11.654c-0.183,0-0.461-0.061-0.497-0.12c-0.008-0.015-0.014-0.032,0-0.059c1.839-2.106,1.843-4.162,0.014-6.285
	L9.814,5.173L9.797,5.158c-0.02-0.019-0.035-0.051-0.019-0.091c0.027-0.062,0.286-0.125,0.444-0.125
	c0.137,0,0.404,0.046,0.665,0.354c1.626,1.96,1.625,3.891-0.003,6.072C10.762,11.549,10.546,11.654,10.313,11.654z"/>
</svg>
