<?xml version="1.0" encoding="utf-8"?>
<!-- Generator: Adobe Illustrator 15.1.0, SVG Export Plug-In  -->
<!DOCTYPE svg PUBLIC "-//W3C//DTD SVG 1.1//EN" "http://www.w3.org/Graphics/SVG/1.1/DTD/svg11.dtd" [
	<!ENTITY ns_flows "http://ns.adobe.com/Flows/1.0/">
]>
<svg version="1.1"
	 xmlns="http://www.w3.org/2000/svg" xmlns:xlink="http://www.w3.org/1999/xlink" xmlns:a="http://ns.adobe.com/AdobeSVGViewerExtensions/3.0/"
	 x="0px" y="0px" width="20px" height="20px" viewBox="-1.191 -2.043 20 20"
	 overflow="visible" enable-background="new -1.191 -2.043 20 20" xml:space="preserve">
<defs>
</defs>
<path d="M0.676,15.914c-0.116,0-0.232-0.04-0.326-0.121c-0.209-0.18-0.233-0.496-0.053-0.705L13.13,0.174
	c0.18-0.21,0.496-0.233,0.705-0.053c0.209,0.18,0.233,0.496,0.053,0.705L1.055,15.74C0.957,15.855,0.816,15.914,0.676,15.914z"/>
<path d="M13.508,15.914c-0.14,0-0.28-0.059-0.379-0.174L0.297,0.827C0.117,0.617,0.14,0.302,0.35,0.122
	c0.208-0.18,0.525-0.157,0.705,0.053l12.833,14.914c0.18,0.209,0.157,0.525-0.053,0.705C13.74,15.875,13.624,15.914,13.508,15.914z"
	/>
<path d="M2.829,5.302H0.922C0.413,5.302,0,5.555,0,5.87v4.441c0,0.312,0.413,0.567,0.922,0.567h1.679l2.513-2.921L2.829,5.302z"/>
<path d="M7.092,10.257l-2.18,2.534l2.379,2.3c0.236,0.096,0.428,0.129,0.59,0.124c0.314,0.027,0.607-0.087,0.834-0.627v-0.083
	v-2.361L7.092,10.257z"/>
<path d="M7.092,5.658l1.623-1.886V1.675V1.592c-0.227-0.54-0.52-0.655-0.834-0.626C7.719,0.96,7.528,0.994,7.292,1.089L5.037,3.269
	L7.092,5.658z"/>
</svg>
