<?xml version="1.0" encoding="utf-8"?>
<!-- Generator: Adobe Illustrator 15.1.0, SVG Export Plug-In  -->
<!DOCTYPE svg PUBLIC "-//W3C//DTD SVG 1.1//EN" "http://www.w3.org/Graphics/SVG/1.1/DTD/svg11.dtd" [
	<!ENTITY ns_flows "http://ns.adobe.com/Flows/1.0/">
]>
<svg version="1.1"
	 xmlns="http://www.w3.org/2000/svg" xmlns:xlink="http://www.w3.org/1999/xlink" xmlns:a="http://ns.adobe.com/AdobeSVGViewerExtensions/3.0/"
	 x="0px" y="0px" width="18px" height="18px" viewBox="-2.338 -4.107 18 18"
	 overflow="visible" enable-background="new -2.338 -4.107 18 18" xml:space="preserve">
<defs>
</defs>
<g>
	<g>
		<path fill="#7A7A7A" d="M1.962,8.8c0.471-1.985,1.722-3.905,2.874-5.557c0.313-0.449,1.536-2.392,1.938-1.465
			C7.4,3.224,6.591,4.78,6.203,6.171C5.591,8.358,6.819,10.192,9.187,9.86c2.309-0.324,3.354-2.981,4.383-4.726
			c0.521-0.883-1.442-0.809-1.829-0.152c-0.675,1.145-1.219,2.338-2.137,3.319C8.381,8.41,7.837,7.981,7.97,7.014
			C8,6.666,8.06,6.324,8.15,5.987c0.189-0.859,0.53-1.685,0.743-2.539c0.326-1.312-0.25-3.664-2.004-3.433
			C3.47,0.467,0.717,6.022,0.015,8.983C-0.189,9.846,1.778,9.577,1.962,8.8L1.962,8.8z"/>
	</g>
</g>
</svg>
