<?xml version="1.0" encoding="utf-8"?>
<!-- Generator: Adobe Illustrator 15.1.0, SVG Export Plug-In  -->
<!DOCTYPE svg PUBLIC "-//W3C//DTD SVG 1.1//EN" "http://www.w3.org/Graphics/SVG/1.1/DTD/svg11.dtd" [
	<!ENTITY ns_flows "http://ns.adobe.com/Flows/1.0/">
]>
<svg version="1.1"
	 xmlns="http://www.w3.org/2000/svg" xmlns:xlink="http://www.w3.org/1999/xlink" xmlns:a="http://ns.adobe.com/AdobeSVGViewerExtensions/3.0/"
	 x="0px" y="0px" width="18px" height="18px" viewBox="-1.35 -3.458 18 18"
	 overflow="visible" enable-background="new -1.35 -3.458 18 18" xml:space="preserve">
<defs>
</defs>
<g>
	<g>
		<path fill="#7A7A7A" d="M3.924,9.357c0.456-1.922,1.7-3.79,2.814-5.389c0.303-0.434,0.66-0.829,1.023-1.213
			c0.879-0.93-1.147-0.489-0.966-0.069c0.599,1.383-0.207,2.895-0.579,4.226c-0.751,2.69,1.133,4.62,3.854,4.238
			c2.877-0.403,4.087-3.063,5.401-5.29c1.042-1.765-2.883-1.617-3.657-0.305c-0.64,1.084-1.15,2.23-2.019,3.159
			c0.384-0.411,0.192-1.606,0.315-2.17c0.189-0.859,0.53-1.685,0.743-2.539c0.474-1.907-0.67-4.272-2.875-3.981
			c-4.018,0.529-7.102,6.117-7.95,9.7C-0.379,11.45,3.556,10.912,3.924,9.357L3.924,9.357z"/>
	</g>
</g>
</svg>
