<?xml version="1.0" encoding="utf-8"?>
<!-- Generator: Adobe Illustrator 15.1.0, SVG Export Plug-In  -->
<!DOCTYPE svg PUBLIC "-//W3C//DTD SVG 1.1//EN" "http://www.w3.org/Graphics/SVG/1.1/DTD/svg11.dtd" [
	<!ENTITY ns_flows "http://ns.adobe.com/Flows/1.0/">
]>
<svg version="1.1"
	 xmlns="http://www.w3.org/2000/svg" xmlns:xlink="http://www.w3.org/1999/xlink" xmlns:a="http://ns.adobe.com/AdobeSVGViewerExtensions/3.0/"
	 x="0px" y="0px" width="24px" height="24px" viewBox="-2 -2 24 24" overflow="visible" enable-background="new -2 -2 24 24"
	 xml:space="preserve">
<defs>
</defs>
<polygon opacity="0.2" fill-rule="evenodd" clip-rule="evenodd" points="8,9 4,9 4,7 0,10 4,13 4,11 8,11 "/>
<polygon opacity="0.2" fill-rule="evenodd" clip-rule="evenodd" points="11,12 9,12 9,16 7,16 10,20 13,16 11,16 "/>
<polygon opacity="0.2" fill-rule="evenodd" clip-rule="evenodd" points="9,8 11,8 11,4 13,4 10,0 7,4 9,4 "/>
<polygon opacity="0.2" fill-rule="evenodd" clip-rule="evenodd" points="20,10 16,7 16,9 12,9 12,11 16,11 16,13 "/>
</svg>
