<?xml version="1.0" encoding="utf-8"?>
<!-- Generator: Adobe Illustrator 15.1.0, SVG Export Plug-In  -->
<!DOCTYPE svg PUBLIC "-//W3C//DTD SVG 1.1//EN" "http://www.w3.org/Graphics/SVG/1.1/DTD/svg11.dtd" [
	<!ENTITY ns_flows "http://ns.adobe.com/Flows/1.0/">
]>
<svg version="1.1"
	 xmlns="http://www.w3.org/2000/svg" xmlns:xlink="http://www.w3.org/1999/xlink" xmlns:a="http://ns.adobe.com/AdobeSVGViewerExtensions/3.0/"
	 x="0px" y="0px" width="18px" height="18px" viewBox="-2.666 -4.267 18 18"
	 overflow="visible" enable-background="new -2.666 -4.267 18 18" xml:space="preserve">
<defs>
</defs>
<g>
	<g>
		<path fill="#7A7A7A" d="M0.981,8.521C1.459,6.505,2.714,4.558,3.884,2.88C4.331,2.24,6.08-0.251,6.762,1.323
			C7.402,2.801,6.592,4.379,6.195,5.8c-0.539,1.927,0.37,3.72,2.549,3.414c2.003-0.28,2.998-2.957,3.874-4.442
			c0.26-0.441-0.721-0.404-0.914-0.076C11.011,5.87,10.45,7.087,9.507,8.095c-1.821,0.421-2.66-0.032-2.518-1.36
			c0.03-0.348,0.089-0.689,0.18-1.026c0.189-0.859,0.53-1.685,0.743-2.539c0.247-0.995-0.078-3.354-1.569-3.157
			c-1.518,0.2-2.534,1.647-3.372,2.792C1.733,4.493,0.496,6.553,0.007,8.612C-0.095,9.044,0.889,8.909,0.981,8.521L0.981,8.521z"/>
	</g>
</g>
</svg>
